# xmcd
#
# Track frame offsets: 
#        150
#        10973
#        28262
#        49432
#        71411
#        92403
#        118405
#        124078
#        139486
#        160732
#        178863
#        204122
#        230253
#        236244
#        258547
#
# Disc length: 4169 seconds
#
# Revision: 2
# Processed by: cddbd v1.5.2PL0 Copyright (c) Steve Scherf et al.
# Submitted via: ExactAudioCopy v0.90b4
#
DISCID=d910470f
DTITLE=Quarteto FLG - O Céu É O Limite
DYEAR=2005
DGENRE=Gospel
TTITLE0=Firme
TTITLE1=Tudo Que Tem Fôlego
TTITLE2=Não Pense Em Parar
TTITLE3=Pronto Pra Batalha
TTITLE4=De Ti
TTITLE5=Como Tu Não Há
TTITLE6=Jesus Disse....
TTITLE7=A Porta
TTITLE8=O Céu É O Limite
TTITLE9=Presente de Deus
TTITLE10=Preciso do Teu Amor
TTITLE11=Novo Coração
TTITLE12=Graças Te Dou
TTITLE13=Sou Grato
TTITLE14=Haja O Que Houver
EXTD=
EXTT0=
EXTT1=
EXTT2=
EXTT3=
EXTT4=
EXTT5=
EXTT6=
EXTT7=
EXTT8=
EXTT9=
EXTT10=
EXTT11=
EXTT12=
EXTT13=
EXTT14=
PLAYORDER=
